<?xml version="1.0" encoding="UTF-8" standalone="no"?>
<!-- Created with Inkscape (http://www.inkscape.org/) -->

<svg
   width="2.0666099in"
   height="0.80225176in"
   viewBox="0 0 52.49189 20.377195"
   version="1.1"
   id="svg1"
   xml:space="preserve"
   xmlns="http://www.w3.org/2000/svg"
   xmlns:svg="http://www.w3.org/2000/svg"><defs
     id="defs1" /><g
     id="layer1"
     transform="translate(-154.40901,-9.0634762)"><g
       id="Hoja_Membretada"><g
         id="Logo_Frase"><path
           d="m 34.13125,203.09032 1.422963,-6.83796 h 1.395153 l -1.181936,5.6952 h 3.457753 l -0.236396,1.14276 z m 7.629325,-3.54958 -1.297825,-0.11194 c 0.148317,-0.44155 0.406335,-0.78672 0.774054,-1.03548 0.370804,-0.24877 0.860578,-0.37315 1.469314,-0.37315 0.63346,0 1.101602,0.12905 1.404432,0.38714 0.302822,0.25499 0.454232,0.5675 0.454232,0.93755 0,0.14926 -0.01394,0.30784 -0.04172,0.47576 -0.02473,0.16792 -0.115848,0.60948 -0.273464,1.32468 -0.129788,0.59082 -0.194677,1.00439 -0.194677,1.24072 0,0.21145 0.03704,0.44622 0.111232,0.70431 h -1.293175 c -0.05251,-0.18034 -0.08497,-0.36692 -0.09738,-0.55972 -0.194667,0.21767 -0.418699,0.38559 -0.672087,0.50376 -0.253389,0.11511 -0.508313,0.17257 -0.764785,0.17257 -0.407882,0 -0.7447,-0.13371 -1.010441,-0.40113 -0.265742,-0.27053 -0.398613,-0.61725 -0.398613,-1.04016 0,-0.47265 0.145234,-0.85046 0.435692,-1.13343 0.293551,-0.28298 0.815775,-0.45401 1.566651,-0.51309 0.63347,-0.0528 1.056799,-0.11663 1.270005,-0.19123 0.05567,-0.18658 0.08344,-0.33583 0.08344,-0.44778 0,-0.14304 -0.05718,-0.26276 -0.171517,-0.35916 -0.114321,-0.0965 -0.284271,-0.14459 -0.509851,-0.14459 -0.237932,0 -0.426431,0.0497 -0.565478,0.14926 -0.135965,0.0965 -0.228662,0.23477 -0.278106,0.41513 z m 1.265365,1.24072 c -0.08039,0.0217 -0.186952,0.042 -0.319822,0.0607 -0.667438,0.0809 -1.103129,0.19903 -1.307075,0.35451 -0.145245,0.11193 -0.217867,0.26275 -0.217867,0.45243 0,0.15548 0.05565,0.28765 0.166867,0.39648 0.111232,0.10571 0.258018,0.15858 0.440342,0.15858 0.200853,0 0.389342,-0.0482 0.565469,-0.14459 0.17922,-0.0995 0.3121,-0.22545 0.398622,-0.37781 0.08964,-0.15548 0.168404,-0.39647 0.236386,-0.72298 z m 5.107844,-1.65119 0.203946,-0.99351 h 0.648908 l 0.162225,-0.79293 1.524922,-0.92355 -0.356893,1.71648 h 0.811144 l -0.203945,0.99351 h -0.815765 l -0.431061,2.07566 c -0.07723,0.37625 -0.115887,0.59082 -0.115887,0.64368 0,0.10267 0.03246,0.18346 0.09738,0.24255 0.06492,0.0559 0.182335,0.084 0.352253,0.084 0.05872,0 0.205524,-0.0114 0.440342,-0.0327 l -0.208585,0.99351 c -0.228673,0.0466 -0.463512,0.0699 -0.704527,0.0699 -0.469687,0 -0.811134,-0.0902 -1.024341,-0.27053 -0.213215,-0.18346 -0.319823,-0.4369 -0.319823,-0.7603 0,-0.15237 0.05718,-0.50375 0.171487,-1.05415 l 0.412522,-1.99168 z m 7.620044,1.8984 h -3.337237 c -0.003,0.0528 -0.005,0.0933 -0.005,0.12133 0,0.32963 0.0927,0.59548 0.278104,0.79761 0.188492,0.20213 0.417153,0.30318 0.685988,0.30318 0.441878,0 0.786418,-0.23011 1.03362,-0.69033 l 1.191218,0.20058 c -0.231757,0.48197 -0.54231,0.84424 -0.931653,1.0868 -0.386249,0.23943 -0.820404,0.35915 -1.302445,0.35915 -0.661271,0 -1.19895,-0.20989 -1.613019,-0.62969 -0.414058,-0.42291 -0.621087,-0.98107 -0.621087,-1.67451 0,-0.67788 0.186942,-1.28114 0.560838,-1.80977 0.509861,-0.7152 1.237566,-1.07281 2.183118,-1.07281 0.60256,0 1.081516,0.18814 1.436873,0.56439 0.355346,0.37315 0.533021,0.89712 0.533021,1.57189 0,0.32339 -0.03093,0.61415 -0.0927,0.87224 z m -1.121677,-0.81625 c 0.003,-0.059 0.005,-0.10419 0.005,-0.13527 0,-0.36693 -0.08191,-0.64213 -0.245666,-0.8256 -0.163773,-0.18347 -0.383165,-0.27519 -0.658178,-0.27519 -0.275011,0 -0.522212,0.10419 -0.741605,0.3125 -0.2163,0.20835 -0.363079,0.5162 -0.440342,0.92356 z m 4.945615,1.01216 1.293175,0.2099 c -0.213206,0.57838 -0.52839,1.01839 -0.945552,1.32002 -0.417153,0.30162 -0.900739,0.45243 -1.450772,0.45243 -0.627286,0 -1.124782,-0.18812 -1.492492,-0.56439 -0.36771,-0.37625 -0.55157,-0.89399 -0.55157,-1.55323 0,-0.53795 0.111245,-1.04637 0.333725,-1.52524 0.222485,-0.47887 0.557756,-0.85514 1.005809,-1.12879 0.448055,-0.27675 0.939367,-0.41512 1.473943,-0.41512 0.580925,0 1.044436,0.15236 1.390514,0.45711 0.346085,0.30474 0.540762,0.70588 0.584018,1.20341 l -1.265366,0.13526 c -0.03083,-0.27675 -0.115835,-0.48043 -0.254925,-0.61103 -0.135965,-0.1306 -0.315184,-0.19591 -0.53766,-0.19591 -0.256481,0 -0.495961,0.0965 -0.718446,0.2892 -0.222487,0.19279 -0.393983,0.48198 -0.5145,0.86757 -0.117411,0.38248 -0.176116,0.74164 -0.176116,1.07747 0,0.2923 0.07113,0.51775 0.213215,0.67634 0.142142,0.15858 0.319814,0.23787 0.53303,0.23787 0.213205,0 0.418699,-0.0778 0.616459,-0.23322 0.197759,-0.15548 0.352263,-0.38869 0.463511,-0.69965 z m 2.989603,-3.08782 h 1.260736 l -0.129778,0.6437 c 0.315183,-0.27365 0.608745,-0.468 0.880673,-0.58306 0.275011,-0.11815 0.563922,-0.17724 0.866753,-0.17724 0.40479,0 0.723067,0.11663 0.954822,0.34983 0.23484,0.23321 0.352264,0.54262 0.352264,0.92821 0,0.17414 -0.05098,0.50375 -0.152947,0.98884 l -0.579389,2.80328 h -1.330266 l 0.58401,-2.81261 c 0.08648,-0.4198 0.129787,-0.67011 0.129787,-0.75096 0,-0.17103 -0.05098,-0.30474 -0.152957,-0.40113 -0.0989,-0.0995 -0.237932,-0.14926 -0.417152,-0.14926 -0.194676,0 -0.410985,0.0824 -0.648917,0.24721 -0.237933,0.16481 -0.424886,0.38247 -0.560851,0.653 -0.09891,0.19281 -0.210111,0.58617 -0.333712,1.1801 l -0.421793,2.03365 h -1.330254 z m 4.945615,2.89659 c 0,-0.91733 0.256472,-1.64809 0.769425,-2.19227 0.516026,-0.54727 1.192755,-0.82092 2.030161,-0.82092 0.72616,0 1.293175,0.20211 1.701058,0.60637 0.407892,0.40114 0.611839,0.9422 0.611839,1.6232 0,0.80227 -0.254926,1.4957 -0.764785,2.08031 -0.509861,0.58459 -1.192755,0.87689 -2.048702,0.87689 -0.463512,0 -0.874487,-0.0933 -1.232937,-0.27985 -0.358438,-0.18659 -0.625727,-0.45089 -0.801854,-0.79295 -0.176136,-0.34205 -0.264205,-0.70898 -0.264205,-1.10078 z m 3.791487,-0.9562 c 0,-0.31719 -0.09269,-0.57061 -0.278105,-0.76029 -0.182312,-0.1928 -0.418708,-0.28919 -0.709166,-0.28919 -0.287374,0 -0.542298,0.0902 -0.764785,0.27053 -0.222485,0.17725 -0.395529,0.43689 -0.519129,0.77895 -0.123605,0.33893 -0.185398,0.65145 -0.185398,0.93753 0,0.35449 0.09575,0.63592 0.287376,0.84426 0.191573,0.20833 0.432598,0.31252 0.723055,0.31252 0.364636,0 0.670551,-0.15705 0.917743,-0.47111 0.352273,-0.44467 0.528409,-0.98575 0.528409,-1.6232 z m 1.803046,3.01317 1.422953,-6.83796 h 1.325625 l -1.418322,6.83796 z m 2.841307,-2.05697 c 0,-0.91733 0.25647,-1.64809 0.769415,-2.19227 0.516036,-0.54727 1.192753,-0.82092 2.030151,-0.82092 0.72617,0 1.293185,0.20211 1.701067,0.60637 0.407893,0.40114 0.611838,0.9422 0.611838,1.6232 0,0.80227 -0.254924,1.4957 -0.764785,2.08031 -0.50986,0.58459 -1.192764,0.87689 -2.048702,0.87689 -0.463509,0 -0.874484,-0.0933 -1.232925,-0.27985 -0.35845,-0.18659 -0.625739,-0.45089 -0.801875,-0.79295 -0.176127,-0.34205 -0.264184,-0.70898 -0.264184,-1.10078 z m 3.791467,-0.9562 c 0,-0.31719 -0.0927,-0.57061 -0.278105,-0.76029 -0.182313,-0.1928 -0.418699,-0.28919 -0.709167,-0.28919 -0.287364,0 -0.542289,0.0902 -0.764774,0.27053 -0.222476,0.17725 -0.395519,0.43689 -0.519131,0.77895 -0.123604,0.33893 -0.185395,0.65145 -0.185395,0.93753 0,0.35449 0.09575,0.63592 0.287373,0.84426 0.191573,0.20833 0.432599,0.31252 0.723066,0.31252 0.364627,0 0.670541,-0.15705 0.917753,-0.47111 0.352254,-0.44467 0.52838,-0.98575 0.52838,-1.6232 z m 1.742786,3.27438 1.404403,0.20523 c 0,0.14304 0.02321,0.25032 0.06961,0.32184 0.0464,0.0747 0.120565,0.13683 0.222486,0.18658 0.105065,0.053 0.247211,0.0793 0.426426,0.0793 0.281192,0 0.506753,-0.0559 0.676712,-0.16792 0.126698,-0.0871 0.230217,-0.227 0.310546,-0.4198 0.0495,-0.12132 0.1128,-0.38557 0.190042,-0.79293 l 0.04636,-0.23322 c -0.460413,0.38558 -0.936283,0.57837 -1.427602,0.57837 -0.48204,0 -0.877571,-0.17102 -1.186578,-0.51307 -0.309007,-0.34205 -0.463511,-0.8427 -0.463511,-1.50193 0,-0.58149 0.105065,-1.11478 0.315194,-1.59987 0.210113,-0.48509 0.505211,-0.85203 0.885293,-1.1008 0.380073,-0.24876 0.767884,-0.37315 1.163414,-0.37315 0.327541,0 0.627276,0.0871 0.899206,0.26121 0.27191,0.17413 0.483573,0.41824 0.63499,0.7323 l 0.185406,-0.8769 h 1.246839 l -0.852857,4.12797 c -0.139067,0.66234 -0.256483,1.13499 -0.352269,1.41797 -0.09576,0.28296 -0.205488,0.50841 -0.32908,0.67632 -0.12361,0.16793 -0.279652,0.30786 -0.468146,0.4198 -0.188503,0.11511 -0.410987,0.19746 -0.66745,0.2472 -0.256474,0.0497 -0.534578,0.0747 -0.834323,0.0747 -0.695258,0 -1.220564,-0.11968 -1.575921,-0.35914 -0.355357,-0.23945 -0.533031,-0.63748 -0.533031,-1.19409 0,-0.059 0.005,-0.12437 0.01394,-0.19591 z m 1.566641,-2.39282 c 0,0.37626 0.08344,0.66389 0.250295,0.86292 0.16996,0.19589 0.38163,0.29384 0.635007,0.29384 0.231755,0 0.455787,-0.0886 0.672086,-0.26586 0.219396,-0.17725 0.386249,-0.42913 0.500588,-0.75563 0.117416,-0.3265 0.176125,-0.64214 0.176125,-0.94687 0,-0.35138 -0.09419,-0.63435 -0.282741,-0.84891 -0.188483,-0.21456 -0.406331,-0.32184 -0.653543,-0.32184 -0.237939,0 -0.457326,0.0948 -0.658178,0.28452 -0.197762,0.18968 -0.361525,0.48198 -0.491312,0.87691 -0.09891,0.30473 -0.148327,0.57837 -0.148327,0.82092 z m 5.330336,-2.82195 h 1.330255 l -1.028981,4.95356 h -1.330275 z m 1.093864,-2.02433 h 1.418337 l -1.501754,1.39931 h -0.885308 z m 2.391697,3.42831 -1.297813,-0.11194 c 0.148328,-0.44155 0.406341,-0.78672 0.774066,-1.03548 0.370793,-0.24877 0.86056,-0.37315 1.469302,-0.37315 0.633451,0 1.101597,0.12905 1.40443,0.38714 0.302822,0.25499 0.454239,0.5675 0.454239,0.93755 0,0.14926 -0.01392,0.30784 -0.04175,0.47576 -0.0247,0.16792 -0.115897,0.60948 -0.273468,1.32468 -0.129786,0.59082 -0.194678,1.00439 -0.194678,1.24072 0,0.21145 0.03705,0.44622 0.111232,0.70431 h -1.293198 c -0.05244,-0.18034 -0.08498,-0.36692 -0.09732,-0.55972 -0.194658,0.21767 -0.4187,0.38559 -0.672087,0.50376 -0.253386,0.11511 -0.508311,0.17257 -0.764794,0.17257 -0.40788,0 -0.744683,-0.13371 -1.010447,-0.40113 -0.265726,-0.27053 -0.398599,-0.61725 -0.398599,-1.04016 0,-0.47265 0.145232,-0.85046 0.435696,-1.13343 0.29355,-0.28298 0.815759,-0.45401 1.566636,-0.51309 0.633461,-0.0528 1.056797,-0.11663 1.270018,-0.19123 0.05557,-0.18658 0.0835,-0.33583 0.0835,-0.44778 0,-0.14304 -0.05714,-0.26276 -0.171498,-0.35916 -0.114388,-0.0965 -0.284289,-0.14459 -0.50985,-0.14459 -0.23793,0 -0.426433,0.0497 -0.565471,0.14926 -0.13598,0.0965 -0.228668,0.23477 -0.278104,0.41513 z m 1.265383,1.24072 c -0.08037,0.0217 -0.186965,0.042 -0.319828,0.0607 -0.66745,0.0809 -1.103145,0.19903 -1.307085,0.35451 -0.145232,0.11193 -0.217848,0.26275 -0.217848,0.45243 0,0.15548 0.05557,0.28765 0.166843,0.39648 0.111232,0.10571 0.258032,0.15858 0.440351,0.15858 0.200852,0 0.389356,-0.0482 0.56548,-0.14459 0.179222,-0.0995 0.312085,-0.22545 0.398608,-0.37781 0.08968,-0.15548 0.168402,-0.39647 0.236392,-0.72298 z m 5.72893,-2.6447 h 1.242202 l -0.199303,0.96087 c 0.463503,-0.71831 0.965633,-1.07747 1.506403,-1.07747 0.19158,0 0.39706,0.0482 0.61645,0.14459 l -0.50985,1.09613 c -0.12044,-0.0435 -0.24875,-0.0652 -0.38471,-0.0652 -0.22867,0 -0.46197,0.0871 -0.69991,0.26121 -0.23483,0.17414 -0.41869,0.40737 -0.551563,0.69967 -0.132862,0.28917 -0.264196,0.74939 -0.393991,1.38065 l -0.324444,1.55323 h -1.330275 z m 7.531982,2.89191 h -3.33726 c -0.003,0.0528 -0.005,0.0933 -0.005,0.12133 0,0.32963 0.0927,0.59548 0.27813,0.79761 0.18848,0.20213 0.41716,0.30318 0.68598,0.30318 0.44187,0 0.78642,-0.23011 1.03361,-0.69033 l 1.19122,0.20058 c -0.23175,0.48197 -0.5423,0.84424 -0.93165,1.0868 -0.38625,0.23943 -0.8204,0.35915 -1.30245,0.35915 -0.66127,0 -1.19895,-0.20989 -1.61301,-0.62969 -0.41407,-0.42291 -0.6211,-0.98107 -0.6211,-1.67451 0,-0.67788 0.18696,-1.28114 0.56086,-1.80977 0.50985,-0.7152 1.23755,-1.07281 2.1831,-1.07281 0.60256,0 1.08153,0.18814 1.43688,0.56439 0.35536,0.37315 0.53303,0.89712 0.53303,1.57189 0,0.32339 -0.0309,0.61415 -0.0927,0.87224 z m -1.12166,-0.81625 c 0.003,-0.059 0.005,-0.10419 0.005,-0.13527 0,-0.36693 -0.0818,-0.64213 -0.24567,-0.8256 -0.16377,-0.18347 -0.38317,-0.27519 -0.65818,-0.27519 -0.27501,0 -0.52221,0.10419 -0.7416,0.3125 -0.2163,0.20835 -0.36309,0.5162 -0.44033,0.92356 z m 1.43686,1.49259 1.28854,-0.20523 c 0.11438,0.27365 0.25647,0.468 0.42642,0.58304 0.16995,0.11193 0.40172,0.16793 0.69527,0.16793 0.30281,0 0.54539,-0.0684 0.7277,-0.20524 0.12669,-0.0933 0.19004,-0.20679 0.19004,-0.3405 0,-0.0902 -0.0324,-0.17103 -0.0973,-0.24255 -0.068,-0.0684 -0.25186,-0.15237 -0.5516,-0.25188 -0.80339,-0.26742 -1.30091,-0.47886 -1.49248,-0.63434 -0.29973,-0.24256 -0.4496,-0.55973 -0.4496,-0.95154 0,-0.3918 0.14523,-0.7292 0.43571,-1.01217 0.40478,-0.39491 1.00579,-0.59237 1.80302,-0.59237 0.63347,0 1.11243,0.11663 1.43689,0.34983 0.32446,0.23321 0.52994,0.54884 0.61645,0.94687 l -1.22828,0.21456 c -0.065,-0.18036 -0.16999,-0.31564 -0.31519,-0.4058 -0.19777,-0.12133 -0.43571,-0.18192 -0.71382,-0.18192 -0.27809,0 -0.47893,0.0466 -0.60254,0.13994 -0.12057,0.0933 -0.18077,0.20056 -0.18077,0.32184 0,0.12437 0.0619,0.22699 0.18539,0.30785 0.0771,0.0497 0.32601,0.13682 0.74626,0.2612 0.6489,0.18969 1.08307,0.37626 1.30245,0.55972 0.309,0.2581 0.4635,0.56905 0.4635,0.93287 0,0.46956 -0.19621,0.87691 -0.58866,1.22207 -0.39244,0.34517 -0.94553,0.51774 -1.65933,0.51774 -0.71071,0 -1.26075,-0.13059 -1.65008,-0.39179 -0.38627,-0.26432 -0.64892,-0.63436 -0.78798,-1.11013 z m 6.4381,-3.56825 h 1.26073 l -0.10656,0.50842 c 0.26883,-0.22388 0.52068,-0.38403 0.75552,-0.48043 0.23483,-0.0965 0.48668,-0.14459 0.75552,-0.14459 0.51602,0 0.9301,0.17881 1.24219,0.5364 0.31519,0.3576 0.47278,0.8909 0.47278,1.59988 0,0.89245 -0.27038,1.64653 -0.81116,2.26222 -0.4635,0.52551 -1.01198,0.78827 -1.64543,0.78827 -0.652,0 -1.14486,-0.26586 -1.47859,-0.7976 l -0.53303,2.57006 h -1.33026 z m 0.80187,2.84061 c 0,0.38559 0.0927,0.68567 0.27811,0.90022 0.18849,0.21144 0.40943,0.31717 0.66282,0.31717 0.21938,0 0.43105,-0.0793 0.635,-0.23787 0.20394,-0.16171 0.37235,-0.42757 0.50522,-0.79761 0.13595,-0.37315 0.20394,-0.71831 0.20394,-1.03548 0,-0.37005 -0.088,-0.65302 -0.26419,-0.84893 -0.17615,-0.19901 -0.40018,-0.29851 -0.67209,-0.29851 -0.25339,0 -0.48514,0.0917 -0.69527,0.27519 -0.20704,0.18035 -0.36772,0.44778 -0.48204,0.80227 -0.11438,0.35139 -0.1715,0.65923 -0.1715,0.92355 z m 4.20401,0.0559 c 0,-0.91734 0.25648,-1.64809 0.76941,-2.19227 0.51604,-0.54729 1.19276,-0.82092 2.03015,-0.82092 0.72618,0 1.2932,0.20211 1.70108,0.60637 0.40789,0.40113 0.61184,0.9422 0.61184,1.62319 0,0.80228 -0.25495,1.49571 -0.7648,2.0803 -0.50986,0.58461 -1.19275,0.87691 -2.0487,0.87691 -0.46351,0 -0.87446,-0.0933 -1.23291,-0.27986 -0.35845,-0.18658 -0.62574,-0.4509 -0.80188,-0.79294 -0.17613,-0.34206 -0.26419,-0.70899 -0.26419,-1.10078 z m 3.79148,-0.9562 c 0,-0.31719 -0.0927,-0.57062 -0.2781,-0.7603 -0.18232,-0.19279 -0.41871,-0.28919 -0.70917,-0.28919 -0.28738,0 -0.5423,0.0902 -0.7648,0.27053 -0.22247,0.17725 -0.39551,0.43689 -0.51912,0.77896 -0.12359,0.33893 -0.18539,0.65145 -0.18539,0.93753 0,0.35449 0.0957,0.6359 0.28737,0.84426 0.19159,0.20833 0.43262,0.3125 0.72307,0.3125 0.36462,0 0.67054,-0.15703 0.91774,-0.47111 0.35226,-0.44466 0.5284,-0.98573 0.5284,-1.62318 z m 2.85983,-1.94039 h 1.26074 l -0.12979,0.64368 c 0.31518,-0.27364 0.60874,-0.46798 0.88068,-0.58304 0.27502,-0.11815 0.56392,-0.17724 0.86674,-0.17724 0.4048,0 0.72309,0.11663 0.95483,0.34982 0.23484,0.23322 0.35226,0.54262 0.35226,0.92821 0,0.17414 -0.051,0.50375 -0.15296,0.98885 l -0.57937,2.80328 h -1.33027 l 0.58402,-2.81261 c 0.0865,-0.4198 0.12978,-0.67011 0.12978,-0.75097 0,-0.17102 -0.051,-0.30473 -0.15296,-0.40112 -0.0989,-0.0995 -0.23792,-0.14926 -0.41714,-0.14926 -0.19469,0 -0.41098,0.0824 -0.64891,0.24721 -0.23795,0.16481 -0.4249,0.38247 -0.56086,0.653 -0.0989,0.1928 -0.21011,0.58617 -0.33371,1.18008 l -0.42181,2.03367 h -1.33024 z m 9.29795,4.95356 h -1.26075 l 0.11123,-0.5364 c -0.24102,0.23321 -0.47895,0.40113 -0.71381,0.50375 -0.23174,0.0995 -0.49441,0.14926 -0.78795,0.14926 -0.50985,0 -0.92392,-0.17414 -1.24219,-0.5224 -0.31519,-0.35139 -0.4728,-0.86914 -0.4728,-1.55323 0,-0.79296 0.2225,-1.50971 0.66746,-2.15029 0.44497,-0.64057 1.03363,-0.96085 1.76597,-0.96085 0.66127,0 1.15721,0.2643 1.48784,0.79294 l 0.53306,-2.56075 h 1.33025 z m -3.07307,-2.01501 c 0,0.3545 0.088,0.63125 0.2642,0.83026 0.17922,0.19902 0.39862,0.29852 0.65817,0.29852 0.24103,0 0.46506,-0.0824 0.6721,-0.2472 0.21012,-0.16792 0.37698,-0.42291 0.50058,-0.76496 0.1267,-0.34206 0.19003,-0.67012 0.19003,-0.98419 0,-0.3576 -0.0957,-0.64679 -0.28736,-0.86756 -0.19158,-0.2208 -0.41252,-0.33118 -0.66282,-0.33118 -0.38933,0 -0.70916,0.21766 -0.95944,0.65301 -0.25032,0.43534 -0.37546,0.90644 -0.37546,1.4133 z m 9.11717,-0.0465 h -3.33724 c -0.003,0.0528 -0.005,0.0933 -0.005,0.12133 0,0.32963 0.0927,0.59549 0.2781,0.79762 0.18849,0.20211 0.41716,0.30318 0.68599,0.30318 0.44188,0 0.78642,-0.23011 1.03362,-0.69033 l 1.19121,0.20057 c -0.23177,0.48198 -0.54231,0.84425 -0.93164,1.0868 -0.38626,0.23943 -0.82042,0.35914 -1.30247,0.35914 -0.66127,0 -1.19893,-0.20988 -1.613,-0.62967 -0.41407,-0.42291 -0.6211,-0.98107 -0.6211,-1.67452 0,-0.67788 0.18694,-1.28114 0.56084,-1.80977 0.50987,-0.71521 1.23757,-1.07281 2.18312,-1.07281 0.60256,0 1.08153,0.18814 1.43687,0.56439 0.35537,0.37316 0.53305,0.89712 0.53305,1.5719 0,0.32338 -0.0309,0.61413 -0.0927,0.87224 z m -1.12168,-0.81626 c 0.003,-0.0592 0.005,-0.10419 0.005,-0.13526 0,-0.36693 -0.0818,-0.64213 -0.24566,-0.82559 -0.16377,-0.18347 -0.38317,-0.2752 -0.65818,-0.2752 -0.27502,0 -0.52223,0.10419 -0.74162,0.31251 -0.21629,0.20834 -0.36307,0.5162 -0.44032,0.92354 z m 1.91428,1.58589 h 1.31636 l -0.26883,1.29203 h -1.31636 z m 3.74977,-5.54594 h 1.33954 l -0.22248,1.06814 c -0.12669,0.6188 -0.33063,1.05726 -0.61182,1.31536 -0.2781,0.25499 -0.63965,0.38714 -1.08462,0.39647 l 0.12979,-0.62037 c 0.22248,-0.0497 0.39398,-0.13837 0.51448,-0.26586 0.12056,-0.1306 0.21168,-0.32962 0.27348,-0.59705 h -0.61183 z m 2.23411,0 h 1.34417 l -0.22249,1.06814 c -0.12976,0.6188 -0.33525,1.05726 -0.61646,1.31536 -0.27811,0.25499 -0.6381,0.38714 -1.07997,0.39647 l 0.12511,-0.62037 c 0.22248,-0.0497 0.39397,-0.13837 0.5145,-0.26586 0.12359,-0.1306 0.21629,-0.32962 0.27808,-0.59705 h -0.61182 z"
           style="color:#000000;font-style:italic;font-variant:normal;font-weight:bold;font-stretch:normal;font-size:9.28147px;line-height:normal;font-family:Arial;-inkscape-font-specification:'Arial, Bold Italic';font-variant-ligatures:normal;font-variant-position:normal;font-variant-caps:normal;font-variant-numeric:normal;font-variant-alternates:normal;font-variant-east-asian:normal;font-feature-settings:normal;font-variation-settings:normal;text-indent:0;text-align:start;text-decoration-line:none;text-decoration-style:solid;text-decoration-color:#000000;letter-spacing:0px;word-spacing:normal;text-transform:none;writing-mode:lr-tb;direction:ltr;text-orientation:mixed;dominant-baseline:auto;baseline-shift:baseline;text-anchor:start;white-space:normal;shape-padding:0;shape-margin:0;inline-size:0;clip-rule:nonzero;display:inline;overflow:visible;visibility:visible;isolation:auto;mix-blend-mode:normal;color-interpolation:sRGB;color-interpolation-filters:linearRGB;solid-color:#000000;solid-opacity:1;vector-effect:none;fill:#333333;fill-opacity:1;fill-rule:nonzero;stroke:none;stroke-width:1.02599;stroke-linecap:butt;stroke-linejoin:miter;stroke-miterlimit:4;stroke-dasharray:none;stroke-dashoffset:0;stroke-opacity:1;-inkscape-stroke:none;color-rendering:auto;image-rendering:auto;shape-rendering:auto;text-rendering:auto;enable-background:accumulate;stop-color:#000000"
           id="path1"
           transform="matrix(0.41365649,0,0,0.41365649,140.2904,-55.400575)" /><g
           id="g8-7-8-7"
           transform="matrix(0.22297501,0,0,0.22438461,148.25054,-1.3200995)"><ellipse
             style="fill:#ff7f00;fill-opacity:1;stroke-width:0.225395"
             id="path1-26-3-8"
             cx="52.290913"
             cy="53.181648"
             rx="6.4892077"
             ry="6.9058533" /><ellipse
             style="fill:#949ca1;fill-opacity:1;stroke-width:0.225395"
             id="path1-8-8-5-1"
             cx="52.290913"
             cy="88.712669"
             rx="6.4892077"
             ry="6.9058533" /><ellipse
             style="fill:#949ca1;fill-opacity:1;stroke-width:0.225395"
             id="path1-9-6-0-0"
             cx="34.108753"
             cy="88.712669"
             rx="6.4892077"
             ry="6.9058533" /><ellipse
             style="fill:#949ca1;fill-opacity:1;stroke-width:0.225395"
             id="path1-2-1-0-0"
             cx="34.127151"
             cy="53.181648"
             rx="6.4892077"
             ry="6.9058533" /><ellipse
             style="fill:#949ca1;fill-opacity:1;stroke-width:0.225395"
             id="path1-93-7-6-0"
             cx="70.473061"
             cy="53.181648"
             rx="6.4892077"
             ry="6.9058533" /><path
             id="path1-0-02-7-3"
             style="opacity:1;fill:#ff7f00;fill-opacity:1;stroke-width:0.225395"
             d="m 34.108776,64.041114 a 6.4892077,6.9058533 0 0 0 -6.48901,6.906038 6.4892077,6.9058533 0 0 0 6.48901,6.906039 6.4892077,6.9058533 0 0 0 5.183146,-2.780192 h 0.05013 a 4.4173803,4.4173803 0 0 1 3.857646,-2.288233 4.4173803,4.4173803 0 0 1 3.869531,2.288233 h 0.03876 a 6.4892077,6.9058533 0 0 0 5.183146,2.780192 6.4892077,6.9058533 0 0 0 5.183146,-2.780192 h 0.04961 a 4.4173803,4.4173803 0 0 1 3.857646,-2.288233 4.4173803,4.4173803 0 0 1 3.869531,2.288233 h 0.03876 a 6.4892077,6.9058533 0 0 0 5.183147,2.780192 6.4892077,6.9058533 0 0 0 6.489526,-6.906039 6.4892077,6.9058533 0 0 0 -6.489526,-6.906038 6.4892077,6.9058533 0 0 0 -5.183147,2.780192 h -0.05323 a 4.4173803,4.4173803 0 0 1 -3.859713,2.29185 4.4173803,4.4173803 0 0 1 -3.860229,-2.29185 h -0.02222 a 6.4892077,6.9058533 0 0 0 -5.2033,-2.780192 6.4892077,6.9058533 0 0 0 -5.183146,2.780192 h -0.05323 a 4.4173803,4.4173803 0 0 1 -3.859713,2.29185 4.4173803,4.4173803 0 0 1 -3.860229,-2.29185 h -0.02274 a 6.4892077,6.9058533 0 0 0 -5.2033,-2.780192 z" /><ellipse
             style="fill:#949ca1;fill-opacity:1;stroke-width:0.225395"
             id="path1-6-0-0-7"
             cx="70.473061"
             cy="88.712669"
             rx="6.4892077"
             ry="6.9058533" /></g><g
           id="g10-4-7"
           transform="matrix(0.22297501,0,0,0.22438461,131.08593,-22.638698)" /><g
           id="g5"
           transform="matrix(0.86145047,0,0,0.86689636,41.559086,-41.574035)"><g
             id="g4"><path
               style="font-weight:bold;font-size:11.4766px;font-family:'Helvetica Neue';-inkscape-font-specification:'Helvetica Neue Bold';letter-spacing:-0.714894px;fill:#949ca1;stroke-width:0.239095"
               d="m 138.05037,74.504181 v -5.933402 h -1.62967 v 3.110158 c 0,0.604435 -0.0995,1.040546 -0.29839,1.308333 -0.19893,0.260136 -0.52028,0.390204 -0.96404,0.390204 -0.39021,0 -0.66182,-0.118591 -0.81484,-0.355774 -0.15302,-0.244835 -0.22953,-0.612086 -0.22953,-1.101754 v -3.351167 h -1.62968 v 3.649559 c 0,0.367251 0.0306,0.703897 0.0918,1.00994 0.0689,0.298392 0.18362,0.554703 0.34429,0.768933 0.16067,0.206579 0.37873,0.367251 0.65417,0.482017 0.28309,0.114766 0.64269,0.172149 1.0788,0.172149 0.3443,0 0.68095,-0.07651 1.00994,-0.229532 0.32899,-0.153021 0.59678,-0.401681 0.80336,-0.745979 h 0.0344 v 0.826315 z m 0.52459,-5.933402 v 5.933402 h 1.62967 v -3.110159 c 0,-0.604434 0.0995,-1.036719 0.2984,-1.296855 0.19893,-0.267787 0.52027,-0.401681 0.96403,-0.401681 0.39021,0 0.66182,0.122417 0.81484,0.367251 0.15302,0.237183 0.22953,0.600608 0.22953,1.090277 v 3.351167 h 1.62968 v -3.649559 c 0,-0.367251 -0.0344,-0.700073 -0.10329,-0.998464 -0.0612,-0.306043 -0.17214,-0.562353 -0.33282,-0.768932 -0.16067,-0.21423 -0.38256,-0.378728 -0.66565,-0.493494 -0.27543,-0.122417 -0.63121,-0.183626 -1.06732,-0.183626 -0.3443,0 -0.68095,0.08034 -1.00994,0.241009 -0.32899,0.153021 -0.59678,0.401681 -0.80336,0.745979 h -0.0344 v -0.826315 z m 7.76632,-0.918128 v -1.342762 h -1.62968 v 1.342762 z m -1.62968,0.918128 v 5.933402 h 1.62968 v -5.933402 z m 6.41207,2.949486 c 0,0.244834 -0.023,0.482017 -0.0689,0.711549 -0.0459,0.229532 -0.12245,0.436111 -0.22954,0.619737 -0.10711,0.175974 -0.25248,0.317519 -0.43611,0.424634 -0.17597,0.107115 -0.39785,0.160672 -0.66564,0.160672 -0.25249,0 -0.47054,-0.05356 -0.65417,-0.160672 -0.17597,-0.114766 -0.32517,-0.260136 -0.44758,-0.436111 -0.11477,-0.183625 -0.19893,-0.390204 -0.25249,-0.619736 -0.0535,-0.229532 -0.0803,-0.459064 -0.0803,-0.688596 0,-0.244835 0.0229,-0.478192 0.0688,-0.700073 0.0535,-0.229532 0.13387,-0.432285 0.24101,-0.60826 0.11477,-0.175975 0.26396,-0.317519 0.44759,-0.424634 0.18363,-0.107115 0.40933,-0.160672 0.67712,-0.160672 0.26779,0 0.48967,0.05356 0.66564,0.160672 0.17597,0.107115 0.31752,0.248659 0.42464,0.424634 0.11477,0.168323 0.1951,0.367251 0.24101,0.596783 0.0459,0.221881 0.0689,0.455239 0.0689,0.700073 z m 0.023,2.22646 v 0.757456 h 1.54934 v -8.194292 h -1.62968 v 2.983916 h -0.023 c -0.18363,-0.290741 -0.43611,-0.508796 -0.75746,-0.654167 -0.31369,-0.153021 -0.64651,-0.229532 -0.99846,-0.229532 -0.43611,0 -0.81867,0.08799 -1.14766,0.263962 -0.32899,0.168323 -0.60443,0.39403 -0.82632,0.67712 -0.21423,0.283089 -0.37872,0.612085 -0.49349,0.986987 -0.10711,0.367251 -0.16067,0.749805 -0.16067,1.14766 0,0.413158 0.0536,0.811014 0.16067,1.193567 0.11477,0.382553 0.27926,0.723026 0.49349,1.021417 0.22189,0.290741 0.50115,0.524098 0.8378,0.700073 0.33665,0.168323 0.72685,0.252485 1.17061,0.252485 0.39021,0 0.73833,-0.06886 1.04437,-0.206579 0.31369,-0.14537 0.56618,-0.378728 0.75746,-0.700073 z m 1.99358,-3.351167 c 0.0229,-0.382553 0.11857,-0.700073 0.28692,-0.952558 0.16832,-0.252485 0.38255,-0.455238 0.64269,-0.608259 0.26013,-0.153021 0.55087,-0.260136 0.87222,-0.321345 0.32899,-0.06886 0.65799,-0.10329 0.98699,-0.10329 0.29839,0 0.6006,0.02295 0.90665,0.06886 0.30604,0.03825 0.5853,0.11859 0.83779,0.241009 0.25249,0.122417 0.45907,0.294566 0.61974,0.516447 0.16067,0.214229 0.24101,0.501144 0.24101,0.860745 v 3.087205 c 0,0.267787 0.0153,0.524098 0.0459,0.768932 0.0306,0.244834 0.0842,0.42846 0.16067,0.550877 h -1.65263 c -0.0306,-0.09181 -0.0574,-0.183625 -0.0803,-0.275438 -0.0153,-0.09946 -0.0268,-0.198928 -0.0344,-0.298392 -0.26014,0.267787 -0.56618,0.455238 -0.91813,0.562353 -0.35195,0.107115 -0.71155,0.160673 -1.0788,0.160673 -0.28309,0 -0.54705,-0.03443 -0.79189,-0.10329 -0.24483,-0.06886 -0.45906,-0.175974 -0.64269,-0.321344 -0.18362,-0.145371 -0.32899,-0.328996 -0.43611,-0.550877 -0.0995,-0.221881 -0.14919,-0.485843 -0.14919,-0.791886 0,-0.336647 0.0574,-0.612085 0.17215,-0.826315 0.12241,-0.221881 0.27543,-0.397855 0.45906,-0.527923 0.19128,-0.130069 0.40551,-0.225707 0.64269,-0.286915 0.24483,-0.06886 0.48967,-0.122418 0.7345,-0.160673 0.24483,-0.03825 0.48584,-0.06886 0.72303,-0.09181 0.23718,-0.02295 0.44758,-0.05738 0.63121,-0.103289 0.18363,-0.04591 0.329,-0.110941 0.43611,-0.195102 0.10711,-0.09181 0.15685,-0.221881 0.1492,-0.390205 0,-0.175974 -0.0306,-0.313693 -0.0918,-0.413157 -0.0535,-0.107115 -0.13005,-0.187452 -0.22954,-0.241009 -0.0918,-0.06121 -0.20275,-0.09946 -0.33282,-0.114766 -0.12241,-0.02295 -0.25631,-0.03443 -0.40168,-0.03443 -0.32135,0 -0.57383,0.06886 -0.75745,0.206579 -0.18363,0.137719 -0.29074,0.367251 -0.32135,0.688596 z m 3.76433,1.205043 c -0.0689,0.06121 -0.15685,0.110939 -0.26396,0.149196 -0.0995,0.03061 -0.21041,0.05739 -0.33282,0.08034 -0.11477,0.02295 -0.23719,0.04208 -0.36726,0.05738 -0.13007,0.0153 -0.26013,0.03443 -0.3902,0.05738 -0.12242,0.02295 -0.24484,0.05356 -0.36725,0.09181 -0.11477,0.03825 -0.21806,0.09181 -0.30987,0.160672 -0.0842,0.06121 -0.15302,0.141543 -0.20658,0.241009 -0.0535,0.09946 -0.0803,0.225707 -0.0803,0.378728 0,0.14537 0.0268,0.267787 0.0803,0.367251 0.0535,0.09946 0.12622,0.1798 0.21806,0.241009 0.0918,0.05356 0.19893,0.09181 0.32134,0.114766 0.12242,0.02295 0.24866,0.03443 0.37873,0.03443 0.32135,0 0.57001,-0.05356 0.74598,-0.160672 0.17597,-0.107115 0.30604,-0.233357 0.3902,-0.378728 0.0842,-0.153021 0.1339,-0.306043 0.1492,-0.459064 0.0229,-0.153021 0.0344,-0.275438 0.0344,-0.367251 z m 6.38911,-0.08034 c 0,0.244834 -0.023,0.482017 -0.0689,0.711549 -0.0459,0.229532 -0.12244,0.436111 -0.22953,0.619737 -0.10711,0.175974 -0.25248,0.317519 -0.43611,0.424634 -0.17597,0.107115 -0.39785,0.160672 -0.66564,0.160672 -0.25249,0 -0.47054,-0.05356 -0.65417,-0.160672 -0.17597,-0.114766 -0.32517,-0.260136 -0.44759,-0.436111 -0.11477,-0.183625 -0.19893,-0.390204 -0.25248,-0.619736 -0.0535,-0.229532 -0.0803,-0.459064 -0.0803,-0.688596 0,-0.244835 0.023,-0.478192 0.0689,-0.700073 0.0535,-0.229532 0.13387,-0.432285 0.24101,-0.60826 0.11477,-0.175975 0.26396,-0.317519 0.44759,-0.424634 0.18363,-0.107115 0.40933,-0.160672 0.67712,-0.160672 0.26779,0 0.48967,0.05356 0.66564,0.160672 0.17597,0.107115 0.31752,0.248659 0.42463,0.424634 0.11477,0.168323 0.1951,0.367251 0.24101,0.596783 0.0459,0.221881 0.0689,0.455239 0.0689,0.700073 z m 0.023,2.22646 v 0.757456 h 1.54934 v -8.194292 h -1.62968 v 2.983916 h -0.0229 c -0.18363,-0.290741 -0.43611,-0.508796 -0.75746,-0.654167 -0.31369,-0.153021 -0.64651,-0.229532 -0.99846,-0.229532 -0.43611,0 -0.81867,0.08799 -1.14766,0.263962 -0.329,0.168323 -0.60444,0.39403 -0.82632,0.67712 -0.21423,0.283089 -0.37872,0.612085 -0.49349,0.986987 -0.10711,0.367251 -0.16067,0.749805 -0.16067,1.14766 0,0.413158 0.0536,0.811014 0.16067,1.193567 0.11477,0.382553 0.27926,0.723026 0.49349,1.021417 0.22188,0.290741 0.50114,0.524098 0.83779,0.700073 0.33665,0.168323 0.72685,0.252485 1.17062,0.252485 0.3902,0 0.73832,-0.06886 1.04437,-0.206579 0.31369,-0.14537 0.56618,-0.378728 0.75745,-0.700073 z"
               id="text1-3-7"
               transform="scale(1.1066027,0.9036667)"
               aria-label="unidad" /></g></g><path
           id="path6-1-3"
           style="fill:#ff7f00;fill-opacity:1;stroke-width:0.0316265"
           d="m 187.81126,59.915072 a 4.2032633,3.7733275 0 0 0 -4.20327,3.773344 4.2032633,3.7733275 0 0 0 4.20327,3.773355 4.2032633,3.7733275 0 0 0 4.11321,-3.041297 h -2.37392 a 1.8622996,2.0904231 0 0 1 -1.73929,1.35837 1.8622996,2.0904231 0 0 1 -1.86228,-2.090428 1.8622996,2.0904231 0 0 1 1.86228,-2.090418 1.8622996,2.0904231 0 0 1 1.74384,1.358426 h 2.3791 a 4.2032633,3.7733275 0 0 0 -4.12294,-3.041352 z"
           transform="matrix(0.86145047,0,0,0.86689636,41.559086,-41.574035)" /><g
           id="g8-73-9"
           transform="matrix(0.86145047,0,0,0.86689636,41.559086,-41.574035)" /><path
           d="m 78.876636,188.94349 h -1.339534 l 0.217848,-1.06814 c 0.129783,-0.6188 0.333725,-1.0557 0.611829,-1.31068 0.281193,-0.2581 0.644274,-0.39181 1.08924,-0.40114 l -0.129782,0.62036 c -0.222482,0.0529 -0.39398,0.14304 -0.514493,0.27053 -0.120511,0.1275 -0.213213,0.32651 -0.278103,0.59704 h 0.611828 z m -2.234101,0 h -1.34417 l 0.222484,-1.06814 c 0.129783,-0.6188 0.333725,-1.0557 0.611828,-1.31068 0.278104,-0.2581 0.639639,-0.39181 1.084606,-0.40114 l -0.129782,0.62036 c -0.222483,0.0529 -0.39398,0.14304 -0.514492,0.27053 -0.120512,0.1275 -0.211668,0.32651 -0.273469,0.59704 h 0.611829 z m 2.604906,4.13729 1.41833,-6.83796 h 5.038315 l -0.236388,1.14277 h -3.638526 l -0.324455,1.55324 h 3.518015 l -0.236389,1.14277 h -3.518014 l -0.426425,1.85641 h 3.95371 l -0.241024,1.14277 z m 6.312958,0 1.422966,-6.83796 h 1.325629 l -1.418331,6.83796 z m 5.617699,-3.96004 0.203942,-0.99351 h 0.64891 l 0.162228,-0.79294 1.524937,-0.92355 -0.356901,1.71649 h 0.811137 l -0.203944,0.99351 h -0.81577 l -0.431062,2.07564 c -0.07725,0.37626 -0.115877,0.59082 -0.115877,0.64368 0,0.10262 0.03245,0.18347 0.09734,0.24255 0.06489,0.056 0.182314,0.084 0.352265,0.084 0.05871,0 0.20549,-0.0109 0.440332,-0.0327 l -0.208578,0.99351 c -0.228663,0.0466 -0.463507,0.07 -0.704531,0.07 -0.469686,0 -0.811135,-0.0902 -1.024348,-0.27053 -0.213213,-0.18347 -0.31982,-0.4369 -0.31982,-0.7603 0,-0.15236 0.05717,-0.50375 0.171498,-1.05414 l 0.41252,-1.99169 z m 4.24572,-2.87792 h 1.330264 l -0.250292,1.21274 h -1.330265 z m -0.389344,1.88441 h 1.330262 l -1.028983,4.95355 h -1.330265 z m 6.401026,2.8919 h -3.337249 c -0.0031,0.0529 -0.0046,0.0933 -0.0046,0.12128 0,0.32961 0.0927,0.59548 0.278104,0.7976 0.188493,0.20213 0.417156,0.30319 0.68599,0.30319 0.441875,0 0.786415,-0.23011 1.033625,-0.69033 l 1.19121,0.20057 c -0.23176,0.48198 -0.54231,0.84425 -0.93165,1.0868 -0.386258,0.23944 -0.820409,0.35915 -1.302455,0.35915 -0.66127,0 -1.198937,-0.20989 -1.613003,-0.62968 -0.414067,-0.42291 -0.6211,-0.98108 -0.6211,-1.67451 0,-0.67789 0.186948,-1.28115 0.560844,-1.80978 0.509857,-0.7152 1.237562,-1.0728 2.183115,-1.0728 0.602559,0 1.081519,0.18813 1.436869,0.56439 0.35536,0.37315 0.53303,0.89711 0.53303,1.57189 0,0.32339 -0.0309,0.61414 -0.0927,0.87223 z m -1.12169,-0.81626 c 0.003,-0.0591 0.005,-0.10417 0.005,-0.13527 0,-0.36693 -0.0819,-0.64212 -0.24566,-0.82559 -0.16377,-0.18346 -0.383164,-0.2752 -0.658178,-0.2752 -0.275013,0 -0.522216,0.10417 -0.741609,0.31252 -0.216303,0.20834 -0.36308,0.51619 -0.44033,0.92354 z m 2.59564,-2.07564 h 1.25147 l -0.12515,0.6017 c 0.48823,-0.47887 1.00117,-0.71831 1.53884,-0.71831 0.37081,0 0.65663,0.0777 0.85749,0.23322 0.20085,0.15548 0.32909,0.37004 0.38471,0.64368 0.16995,-0.24877 0.41406,-0.45711 0.73234,-0.62503 0.31827,-0.16791 0.64891,-0.25187 0.9919,-0.25187 0.39244,0 0.69835,0.10572 0.91774,0.31717 0.2194,0.21146 0.32909,0.49132 0.32909,0.83959 0,0.17103 -0.0433,0.46644 -0.12978,0.88623 l -0.63037,3.02717 h -1.33026 l 0.63037,-3.02717 c 0.0773,-0.37937 0.11588,-0.59393 0.11588,-0.64368 0,-0.13682 -0.0417,-0.2441 -0.12515,-0.32184 -0.0803,-0.0809 -0.2024,-0.12128 -0.36617,-0.12128 -0.33064,0 -0.62574,0.17569 -0.8853,0.52708 -0.18849,0.25187 -0.34917,0.6981 -0.48205,1.33867 l -0.46814,2.24822 h -1.33026 l 0.6211,-2.99452 c 0.0711,-0.34516 0.1066,-0.56905 0.1066,-0.67167 0,-0.1306 -0.0448,-0.23788 -0.13441,-0.32184 -0.0865,-0.0839 -0.20704,-0.12594 -0.36154,-0.12594 -0.14523,0 -0.2951,0.0435 -0.4496,0.13061 -0.1545,0.0871 -0.29046,0.20678 -0.40788,0.35915 -0.11434,0.15237 -0.21322,0.34827 -0.29665,0.58771 -0.0371,0.11195 -0.0973,0.36538 -0.18077,0.76029 l -0.47277,2.27621 h -1.33027 z m 8.44045,0 h 1.26074 l -0.10661,0.50841 c 0.26883,-0.22389 0.52067,-0.38403 0.75552,-0.48043 0.23484,-0.0964 0.48668,-0.14459 0.75551,-0.14459 0.51604,0 0.9301,0.1788 1.2422,0.5364 0.31518,0.3576 0.47278,0.89089 0.47278,1.59988 0,0.89245 -0.27038,1.64652 -0.81114,2.26222 -0.46351,0.52552 -1.01199,0.78827 -1.64545,0.78827 -0.652,0 -1.14486,-0.26586 -1.47858,-0.7976 l -0.53304,2.57006 h -1.33026 z m 0.80187,2.8406 c 0,0.38558 0.0927,0.68566 0.2781,0.90022 0.18849,0.21145 0.40943,0.31718 0.66281,0.31718 0.2194,0 0.43106,-0.0793 0.63501,-0.23789 0.20394,-0.16169 0.37235,-0.42756 0.50522,-0.7976 0.13596,-0.37315 0.20394,-0.71832 0.20394,-1.03549 0,-0.37004 -0.0881,-0.65301 -0.2642,-0.84892 -0.17613,-0.19901 -0.40016,-0.29852 -0.67208,-0.29852 -0.25338,0 -0.48514,0.0917 -0.69526,0.2752 -0.20703,0.18036 -0.36772,0.44778 -0.48205,0.80227 -0.11433,0.35138 -0.17149,0.65923 -0.17149,0.92355 z m 4.204,0.056 c 0,-0.91733 0.25647,-1.64808 0.76942,-2.19225 0.51604,-0.54729 1.19276,-0.82093 2.03016,-0.82093 0.72616,0 1.29318,0.20212 1.70107,0.60637 0.40788,0.40113 0.61182,0.9422 0.61182,1.6232 0,0.80227 -0.25492,1.4957 -0.76478,2.0803 -0.50986,0.5846 -1.19276,0.8769 -2.0487,0.8769 -0.46351,0 -0.87448,-0.0933 -1.23293,-0.27986 -0.35844,-0.18657 -0.62573,-0.45089 -0.80186,-0.79294 -0.17614,-0.34205 -0.2642,-0.70899 -0.2642,-1.10079 z m 3.79148,-0.9562 c 0,-0.31717 -0.0927,-0.5706 -0.2781,-0.76029 -0.18231,-0.19279 -0.4187,-0.28919 -0.70917,-0.28919 -0.28737,0 -0.5423,0.0902 -0.76478,0.27053 -0.22249,0.17725 -0.39553,0.4369 -0.51913,0.77895 -0.1236,0.33895 -0.1854,0.65146 -0.1854,0.93754 0,0.35449 0.0958,0.63591 0.28737,0.84425 0.19158,0.20834 0.43261,0.31251 0.72307,0.31251 0.36463,0 0.67054,-0.15703 0.91774,-0.4711 0.35227,-0.44467 0.5284,-0.98573 0.5284,-1.6232 z m 5.868,-3.82478 h 1.33026 l -0.25029,1.21274 h -1.33027 z m -0.38935,1.88441 h 1.33027 l -1.02899,4.95355 h -1.33026 z m 2.59563,0 h 1.25147 l -0.12515,0.6017 c 0.48823,-0.47887 1.00118,-0.71831 1.53885,-0.71831 0.37081,0 0.65663,0.0777 0.85749,0.23321 0.20085,0.15548 0.32908,0.37005 0.38471,0.64369 0.16995,-0.24877 0.41406,-0.45711 0.73234,-0.62503 0.31827,-0.16791 0.6489,-0.25187 0.9919,-0.25187 0.39243,0 0.69835,0.10572 0.91774,0.31717 0.2194,0.21146 0.32909,0.49132 0.32909,0.83959 0,0.17103 -0.0432,0.46644 -0.12977,0.88623 l -0.63038,3.02717 h -1.33026 l 0.63037,-3.02717 c 0.0772,-0.37937 0.11588,-0.59393 0.11588,-0.64368 0,-0.13682 -0.0417,-0.2441 -0.12515,-0.32184 -0.0803,-0.0809 -0.2024,-0.12128 -0.36617,-0.12128 -0.33063,0 -0.62574,0.17569 -0.88529,0.52708 -0.1885,0.25187 -0.34918,0.6981 -0.48206,1.33867 l -0.46814,2.24822 h -1.33026 l 0.6211,-2.99452 c 0.071,-0.34516 0.10661,-0.56905 0.10661,-0.67167 0,-0.1306 -0.0448,-0.23788 -0.13442,-0.32184 -0.0865,-0.0839 -0.20703,-0.12594 -0.36154,-0.12594 -0.14523,0 -0.29509,0.0435 -0.4496,0.1306 -0.1545,0.0871 -0.29046,0.20679 -0.40789,0.35916 -0.11433,0.15237 -0.2132,0.34827 -0.29664,0.58771 -0.037,0.11195 -0.0974,0.36538 -0.18077,0.76029 l -0.47277,2.27621 h -1.33027 z m 8.44046,0 h 1.26073 l -0.1066,0.50841 c 0.26884,-0.22389 0.52067,-0.38403 0.75551,-0.48043 0.23485,-0.0964 0.48669,-0.14459 0.75551,-0.14459 0.51605,0 0.93012,0.1788 1.24221,0.5364 0.31518,0.3576 0.47277,0.89089 0.47277,1.59988 0,0.89245 -0.27038,1.64652 -0.81113,2.26222 -0.46351,0.52551 -1.01199,0.78827 -1.64545,0.78827 -0.652,0 -1.14487,-0.26587 -1.47859,-0.7976 l -0.53302,2.57006 h -1.33027 z m 0.80186,2.8406 c 0,0.38558 0.0927,0.68566 0.2781,0.90022 0.1885,0.21145 0.40944,0.31718 0.66282,0.31718 0.21939,0 0.43106,-0.0793 0.63501,-0.23789 0.20394,-0.16169 0.37235,-0.42756 0.50522,-0.7976 0.13595,-0.37315 0.20393,-0.71832 0.20393,-1.03549 0,-0.37004 -0.0881,-0.65301 -0.26419,-0.84892 -0.17613,-0.19901 -0.40016,-0.29852 -0.67209,-0.29852 -0.25338,0 -0.48513,0.0917 -0.69525,0.2752 -0.20704,0.18036 -0.36772,0.44778 -0.48205,0.80227 -0.11434,0.35138 -0.1715,0.65923 -0.1715,0.92355 z m 4.20401,0.056 c 0,-0.91733 0.25647,-1.64808 0.76942,-2.19226 0.51604,-0.54728 1.19276,-0.82092 2.03016,-0.82092 0.72615,0 1.29318,0.20212 1.70106,0.60636 0.40789,0.40114 0.61184,0.94221 0.61184,1.6232 0,0.80227 -0.25493,1.49571 -0.76479,2.08031 -0.50987,0.5846 -1.19276,0.8769 -2.0487,0.8769 -0.4635,0 -0.87447,-0.0933 -1.23292,-0.27986 -0.35845,-0.18657 -0.62574,-0.45089 -0.80188,-0.79294 -0.17612,-0.34206 -0.26419,-0.70899 -0.26419,-1.10079 z m 3.79148,-0.9562 c 0,-0.31717 -0.0927,-0.5706 -0.27811,-0.76029 -0.18231,-0.19279 -0.4187,-0.28919 -0.70916,-0.28919 -0.28737,0 -0.54229,0.0902 -0.76478,0.27054 -0.22249,0.17724 -0.39553,0.43689 -0.51913,0.77894 -0.1236,0.33895 -0.1854,0.65146 -0.1854,0.93754 0,0.35449 0.0958,0.63591 0.28738,0.84425 0.19157,0.20834 0.4326,0.31252 0.72306,0.31252 0.36462,0 0.67053,-0.15704 0.91774,-0.47111 0.35226,-0.44467 0.5284,-0.98573 0.5284,-1.6232 z m 2.76713,-1.94037 h 1.2422 l -0.19931,0.96086 c 0.4635,-0.71832 0.96564,-1.07747 1.50639,-1.07747 0.19159,0 0.39708,0.0482 0.61647,0.14459 l -0.50987,1.09613 c -0.12051,-0.0435 -0.24874,-0.0653 -0.3847,-0.0653 -0.22866,0 -0.46196,0.0871 -0.6999,0.2612 -0.23484,0.17414 -0.4187,0.40736 -0.55157,0.69966 -0.13288,0.28919 -0.2642,0.74941 -0.39398,1.38065 l -0.32445,1.55324 h -1.33027 z m 3.07304,0.99351 0.20395,-0.99351 h 0.64891 l 0.16224,-0.79294 1.52493,-0.92355 -0.35691,1.71649 h 0.81115 l -0.20395,0.99351 h -0.81577 l -0.43105,2.07564 c -0.0772,0.37626 -0.11589,0.59082 -0.11589,0.64368 0,0.10262 0.0325,0.18347 0.0974,0.24255 0.0649,0.056 0.18234,0.084 0.35226,0.084 0.0587,0 0.20552,-0.0109 0.44033,-0.0327 l -0.20858,0.99351 c -0.22866,0.0466 -0.46351,0.07 -0.70453,0.07 -0.46969,0 -0.81114,-0.0902 -1.02434,-0.27053 -0.21322,-0.18347 -0.31983,-0.4369 -0.31983,-0.7603 0,-0.15237 0.0572,-0.50375 0.17151,-1.05414 l 0.41251,-1.99169 z m 4.7046,0.41046 -1.29782,-0.11194 c 0.14833,-0.44156 0.40634,-0.78672 0.77405,-1.03549 0.37081,-0.24877 0.86058,-0.37315 1.46933,-0.37315 0.63345,0 1.10159,0.12905 1.40442,0.38714 0.30282,0.25499 0.45423,0.5675 0.45423,0.93754 0,0.14926 -0.0139,0.30785 -0.0417,0.47576 -0.0247,0.16792 -0.11585,0.60948 -0.27345,1.32468 -0.12979,0.59082 -0.19469,1.0044 -0.19469,1.24073 0,0.21145 0.037,0.44622 0.11125,0.70432 h -1.29319 c -0.0525,-0.18036 -0.085,-0.36694 -0.0973,-0.55973 -0.19468,0.21767 -0.41871,0.38559 -0.67209,0.50375 -0.25339,0.11506 -0.50831,0.17258 -0.76479,0.17258 -0.40788,0 -0.7447,-0.13371 -1.01044,-0.40113 -0.26574,-0.27053 -0.39861,-0.61725 -0.39861,-1.04016 0,-0.47265 0.14523,-0.85046 0.43569,-1.13344 0.29355,-0.28297 0.81578,-0.45399 1.56665,-0.51308 0.63345,-0.0529 1.05679,-0.1166 1.27001,-0.19124 0.0557,-0.18657 0.0834,-0.33583 0.0834,-0.44778 0,-0.14304 -0.0572,-0.26275 -0.1715,-0.35915 -0.11433,-0.0964 -0.28428,-0.1446 -0.50986,-0.1446 -0.23793,0 -0.42643,0.0498 -0.56548,0.14926 -0.13595,0.0964 -0.22865,0.23478 -0.27809,0.41513 z m 1.26538,1.24072 c -0.0804,0.0218 -0.18696,0.042 -0.31982,0.0606 -0.66746,0.0809 -1.10315,0.19902 -1.3071,0.35449 -0.14523,0.11195 -0.21785,0.26276 -0.21785,0.45245 0,0.15548 0.0556,0.28763 0.16686,0.39647 0.11125,0.10572 0.25802,0.15859 0.44033,0.15859 0.20086,0 0.38936,-0.0482 0.56548,-0.1446 0.17922,-0.0995 0.3121,-0.22544 0.39863,-0.37781 0.0896,-0.15548 0.1684,-0.39647 0.23638,-0.72298 z m 2.44266,1.01684 h 1.31637 l -0.26884,1.29203 h -1.31635 z"
           id="text10-4-9"
           style="color:#000000;font-style:italic;font-variant:normal;font-weight:bold;font-stretch:normal;font-size:9.28147px;line-height:normal;font-family:Arial;-inkscape-font-specification:'Arial, Bold Italic';font-variant-ligatures:normal;font-variant-position:normal;font-variant-caps:normal;font-variant-numeric:normal;font-variant-alternates:normal;font-variant-east-asian:normal;font-feature-settings:normal;font-variation-settings:normal;text-indent:0;text-align:start;text-decoration-line:none;text-decoration-style:solid;text-decoration-color:#000000;letter-spacing:0px;word-spacing:normal;text-transform:none;writing-mode:lr-tb;direction:ltr;text-orientation:mixed;dominant-baseline:auto;baseline-shift:baseline;text-anchor:start;white-space:normal;shape-padding:0;shape-margin:0;inline-size:0;clip-rule:nonzero;display:inline;overflow:visible;visibility:visible;isolation:auto;mix-blend-mode:normal;color-interpolation:sRGB;color-interpolation-filters:linearRGB;solid-color:#000000;solid-opacity:1;vector-effect:none;fill:#333333;fill-opacity:1;fill-rule:nonzero;stroke:none;stroke-width:1.02598;stroke-linecap:butt;stroke-linejoin:miter;stroke-miterlimit:4;stroke-dasharray:none;stroke-dashoffset:0;stroke-opacity:1;-inkscape-stroke:none;color-rendering:auto;image-rendering:auto;shape-rendering:auto;text-rendering:auto;enable-background:accumulate;stop-color:#000000"
           aria-label="“El tiempo importa. La tecnología responde.”"
           transform="matrix(0.41365649,0,0,0.41365649,140.2904,-55.400575)" /></g></g></g></svg>
